<svg version="1.0" xmlns="http://www.w3.org/2000/svg"
 width="1185.000000pt" height="908.000000pt" viewBox="0 0 1185.000000 908.000000"
 preserveAspectRatio="xMidYMid meet">

<g transform="translate(0.000000,908.000000) scale(0.100000,-0.100000)"
fill="#000000" stroke="none">
<path d="M4887 7473 c-312 -333 -664 -720 -660 -725 2 -5 709 -8 1570 -8 1352
0 1564 2 1560 14 -10 27 -579 686 -592 686 -7 0 -12 10 -11 23 l1 22 -909 3
c-629 1 -912 5 -916 13 -4 6 -22 -5 -43 -28z m1323 -318 l0 -145 -440 0 -440
0 0 145 0 145 440 0 440 0 0 -145z"/>
<path d="M7790 6966 c0 -183 2 -215 15 -220 9 -3 261 -6 560 -6 l545 1 0 219
0 220 -560 0 -560 0 0 -214z"/>
<path d="M2670 6839 c0 -101 2 -111 17 -105 9 4 234 7 499 6 265 0 489 3 498
6 13 5 16 23 16 105 l0 99 -515 0 -515 0 0 -111z"/>
<path d="M2795 6579 c-248 -12 -395 -45 -564 -124 -292 -139 -471 -379 -545
-735 -25 -119 -33 -220 -35 -452 l-2 -218 1650 0 1650 0 138 138 c238 239 458
383 738 482 223 78 414 110 670 109 202 0 358 -17 516 -58 353 -91 647 -266
927 -555 l114 -116 1004 0 1005 0 -5 238 c-6 256 -8 278 -37 424 -37 188 -100
335 -198 466 -169 224 -431 356 -776 392 -120 12 -6007 20 -6250 9z"/>
<path d="M6280 5119 c-474 -71 -911 -442 -1060 -900 -48 -147 -63 -247 -63
-424 0 -321 78 -565 259 -805 205 -272 476 -448 800 -520 112 -25 354 -35 462
-20 296 44 539 163 756 370 199 189 327 421 388 700 30 135 30 403 -1 543
-115 537 -549 959 -1080 1052 -93 16 -365 19 -461 4z"/>
<path d="M1653 3578 c3 -1139 5 -1282 20 -1362 38 -206 99 -360 192 -491 50
-70 159 -177 228 -224 76 -52 223 -117 327 -145 222 -60 -2 -56 3430 -56 3450
0 3218 -4 3445 60 428 121 664 407 742 902 17 104 18 211 18 1348 l0 1235
-927 3 c-511 1 -928 -1 -928 -4 0 -3 9 -19 21 -35 66 -93 175 -355 219 -531
48 -185 69 -492 49 -688 -65 -616 -394 -1145 -929 -1492 -307 -200 -649 -298
-1038 -299 -192 0 -244 3 -382 28 -420 73 -765 262 -1080 589 -262 272 -421
564 -508 934 -42 175 -54 518 -26 730 32 246 118 497 243 709 17 28 31 54 31
56 0 3 -709 5 -1575 5 l-1576 0 4 -1272z"/>
</g>
</svg>
